<?xml version="1.0" encoding="UTF-8"?>
<!DOCTYPE svg PUBLIC "-//W3C//DTD SVG 1.1//EN" "http://www.w3.org/Graphics/SVG/1.1/DTD/svg11.dtd">
<!-- Creator: CorelDRAW X7 -->
<svg xmlns="http://www.w3.org/2000/svg" xml:space="preserve" width="12.7233mm" height="12.7232mm" version="1.1" style="shape-rendering:geometricPrecision; text-rendering:geometricPrecision; image-rendering:optimizeQuality; fill-rule:evenodd; clip-rule:evenodd"
viewBox="0 0 36 36"
 xmlns:xlink="http://www.w3.org/1999/xlink">
 <defs>
  <style type="text/css">
   <![CDATA[
    .fil1 {fill:#FEFEFE}
    .fil0 {fill:#3179BD}
   ]]>
  </style>
 </defs>
 <g id="Capa_x0020_1">
  <metadata id="CorelCorpID_0Corel-Layer"/>
  <g id="_1671650087968">
   <path class="fil0" d="M27 36l-6 0 -3 -1 -3 1 -6 0c-5,0 -9,-4 -9,-9l0 -18c0,-5 4,-9 9,-9l18 0c5,0 9,4 9,9l0 18c0,5 -4,9 -9,9z"/>
   <path class="fil1" d="M15 14l0 4 -4 0 0 5 4 0 0 13 6 0 0 -13 4 0 1 -5 -5 0 0 -3c0,-2 0,-3 3,-3l2 0 0 -5c0,0 -2,0 -4,0 -4,0 -7,3 -7,7z"/>
  </g>
 </g>
</svg>
