<?xml version="1.0" encoding="UTF-8"?>
<!DOCTYPE svg PUBLIC "-//W3C//DTD SVG 1.1//EN" "http://www.w3.org/Graphics/SVG/1.1/DTD/svg11.dtd">
<!-- Creator: CorelDRAW X7 -->
<svg xmlns="http://www.w3.org/2000/svg" xml:space="preserve" width="67.764mm" height="16.9334mm" version="1.1" style="shape-rendering:geometricPrecision; text-rendering:geometricPrecision; image-rendering:optimizeQuality; fill-rule:evenodd; clip-rule:evenodd"
viewBox="0 0 11078 2768"
 xmlns:xlink="http://www.w3.org/1999/xlink">
 <defs>
  <style type="text/css">
   <![CDATA[
    .str1 {stroke:#FEFEFE;stroke-width:32.6961}
    .str0 {stroke:#FEFEFE;stroke-width:81.7403;stroke-dasharray:81.740280 408.701400}
    .fil1 {fill:none}
    .fil3 {fill:#FFCC29}
    .fil0 {fill:#F58634}
    .fil2 {fill:#91D8F7}
    .fil4 {fill:#A8CF45}
    .fil5 {fill:#00A859}
   ]]>
  </style>
 </defs>
 <g id="Capa_x0020_1">
  <metadata id="CorelCorpID_0Corel-Layer"/>
  <rect class="fil0" x="5" width="11073" height="2768"/>
  <rect class="fil1 str0" x="270" y="526" width="10543" height="2139"/>
  <rect class="fil2" x="5" y="2152" width="11073" height="616"/>
  <rect class="fil3" x="5" y="1737" width="1061" height="1031"/>
  <rect class="fil4" x="5" y="1287" width="463" height="450"/>
  <path class="fil5" d="M2801 1548l-272 23 -6 -68 23 -2 -13 -148 -23 2 -6 -68 272 -24 8 91 -75 7 -2 -23 -65 6 4 43 57 -5 5 58 -57 5 5 47 64 -6 -2 -23 75 -6 8 91zm158 15l-117 9 -5 -68 25 -2 -12 -148 -25 2 -5 -68 135 -11 115 141 -6 -81 -23 2 -6 -68 115 -9 5 68 -24 2 17 221 -94 7 -133 -163 8 100 25 -2 5 68zm398 3l-89 -6 -74 -226 -21 -2 5 -68 153 12 -5 68 -24 -2 33 125 54 -119 -24 -1 5 -69 115 9 -5 68 -21 -1 -102 212zm294 0l-162 -13 5 -68 26 2 12 -148 -26 -2 5 -68 162 12 -5 68 -26 -2 -12 149 26 2 -5 68zm171 -219l-27 79 51 0 -24 -79zm-28 211l-113 -3 1 -68 22 0 58 -147 -23 -1 2 -68 205 6 -2 68 -23 -1 50 151 21 0 -1 68 -149 -4 1 -62 26 0 -11 -36 -73 -1 -13 35 23 1 -1 62zm337 -4l-111 -7 4 -68 22 1 9 -148 -23 -2 4 -68 172 10 36 113 49 -108 171 10 -4 69 -22 -2 -9 149 23 1 -4 68 -149 -8 4 -69 23 2 9 -159 -99 222 -43 -3 -72 -230 -9 157 23 2 -4 68zm489 -130c6,31 13,51 21,61 8,10 18,14 30,11 12,-2 21,-9 24,-21 4,-12 3,-34 -3,-65 -6,-31 -13,-52 -21,-62 -8,-10 -18,-13 -31,-11 -12,3 -20,10 -24,21 -4,12 -3,34 4,66zm-122 23c-5,-23 -3,-47 4,-71 7,-24 21,-46 42,-65 7,-7 15,-13 24,-18 8,-5 17,-9 27,-13 10,-3 21,-6 33,-8 50,-10 92,-3 125,21 17,12 30,26 40,41 10,16 17,33 21,52 8,39 0,76 -23,110 -23,35 -59,57 -107,66 -47,9 -88,3 -122,-19 -35,-21 -56,-53 -64,-96zm419 112l-65 -2 3 -92 65 2c6,25 20,38 42,39 15,0 23,-6 23,-18 0,-6 -2,-12 -7,-16 -6,-5 -18,-12 -36,-21 -23,-11 -40,-21 -50,-28 -10,-8 -19,-18 -26,-30 -7,-13 -10,-26 -9,-41 0,-27 10,-47 27,-61 18,-15 39,-22 64,-21 25,1 46,9 63,23l1 -17 64 2 -2 81 -64 -2c-7,-22 -20,-34 -40,-35 -14,0 -21,6 -22,17 0,6 2,11 6,14 4,3 16,10 36,21 28,14 46,25 56,32 4,3 9,8 14,14 5,5 9,11 12,18 7,13 10,28 10,43 -1,24 -11,44 -29,60 -18,17 -41,24 -68,23 -25,0 -48,-9 -68,-24l0 19zm432 -212l-26 79 51 0 -25 -79zm-28 211l-113 -3 2 -68 22 0 57 -147 -23 -1 2 -68 205 6 -2 68 -23 -1 51 151 21 0 -2 68 -149 -4 2 -62 25 0 -10 -36 -73 -1 -14 35 24 1 -2 62zm581 -6l-160 18 -7 -68 25 -3 -17 -148 -33 4 6 51 -53 6 -13 -119 281 -31 13 119 -53 6 -6 -51 -32 3 16 148 25 -3 8 68zm200 -128c6,31 13,51 22,61 7,10 18,14 30,11 12,-2 20,-9 24,-21 4,-12 3,-34 -3,-65 -6,-31 -13,-52 -21,-62 -8,-10 -18,-13 -31,-11 -12,3 -20,10 -24,21 -4,12 -3,34 3,66zm-121 23c-5,-23 -4,-47 4,-71 7,-24 21,-46 42,-65 7,-7 15,-13 23,-18 9,-5 18,-9 28,-13 10,-3 21,-6 33,-8 50,-10 92,-3 125,21 16,12 30,26 40,41 10,16 17,33 21,52 7,39 0,76 -23,110 -23,35 -59,57 -107,66 -47,9 -88,3 -122,-19 -35,-21 -56,-53 -64,-96zm513 -107l-23 147 11 2c25,4 43,-1 53,-13 10,-13 16,-29 19,-50 2,-12 2,-25 1,-37 -1,-13 -6,-23 -13,-31 -8,-8 -22,-14 -44,-17l-4 -1zm-33 215l-131 -21 10 -67 22 3 23 -147 -22 -3 10 -68 136 21c30,5 55,11 74,18 19,6 36,17 52,31 15,15 26,33 33,55 3,11 5,22 6,33 1,12 0,23 -1,36 -4,24 -13,46 -27,64 -13,19 -28,32 -46,40 -17,8 -35,13 -54,13 -18,0 -47,-2 -85,-8zm371 -131c6,31 13,51 22,61 7,10 18,14 30,11 12,-2 20,-9 24,-21 4,-12 3,-34 -3,-65 -6,-31 -13,-52 -21,-62 -8,-10 -18,-13 -31,-11 -12,3 -20,10 -24,21 -4,12 -3,34 3,66zm-121 23c-5,-23 -4,-47 4,-71 7,-24 21,-46 42,-65 7,-7 15,-13 23,-18 9,-5 18,-9 28,-13 10,-3 21,-6 33,-8 50,-10 92,-3 125,21 16,12 30,26 40,41 10,16 17,33 21,52 7,39 0,76 -23,110 -23,35 -59,57 -107,66 -47,9 -88,3 -122,-19 -35,-21 -56,-53 -64,-96zm749 101l-271 23 -6 -68 22 -2 -13 -148 -23 2 -5 -68 271 -24 8 91 -74 7 -3 -23 -64 6 4 43 56 -5 5 58 -56 5 4 47 64 -6 -1 -23 74 -6 8 91zm322 -13l-268 44 -12 -68 26 -4 -24 -147 -25 4 -11 -67 160 -26 12 67 -27 5 24 146 66 -10 -7 -46 67 -11 19 113zm259 -195l8 54 22 -4c14,-2 25,-5 31,-10 6,-4 8,-12 7,-22 -1,-6 -4,-12 -8,-16 -4,-4 -9,-6 -15,-6 -5,-1 -15,0 -28,2l-17 2zm61 217l-165 24 -10 -67 28 -4 -22 -148 -27 5 -11 -68 174 -26c40,-6 69,-6 89,-1 19,5 34,14 45,26 11,12 17,26 20,42 3,20 0,38 -8,52 -9,15 -21,27 -37,35 -16,8 -41,15 -76,20l-44 7 6 39 28 -4 10 68zm278 -210l-27 79 52 0 -25 -79zm-28 211l-113 -3 2 -68 21 0 58 -147 -23 -1 2 -68 205 6 -2 68 -23 -1 51 151 21 0 -2 68 -149 -4 2 -62 25 0 -10 -36 -73 -1 -14 35 24 1 -2 62zm382 8l-162 -13 5 -68 27 2 11 -148 -26 -2 5 -68 163 12 -6 68 -26 -2 -11 149 26 2 -6 68zm106 -7l-65 -2 3 -92 65 2c6,25 20,38 42,39 15,0 23,-6 23,-18 0,-6 -2,-12 -7,-16 -6,-5 -18,-12 -36,-21 -23,-11 -40,-21 -50,-28 -10,-8 -19,-18 -26,-30 -7,-13 -10,-26 -9,-41 0,-27 10,-47 27,-61 18,-15 39,-22 64,-21 25,1 46,9 63,23l1 -17 64 2 -2 81 -64 -2c-7,-22 -21,-34 -40,-35 -14,0 -22,6 -22,17 0,6 2,11 6,14 3,3 16,10 36,21 28,14 46,25 56,32 4,3 9,8 14,14 5,5 9,11 12,18 7,13 10,28 9,43 0,24 -10,44 -28,60 -18,17 -41,24 -68,23 -25,0 -48,-9 -68,-24l0 19z"/>
  <path class="fil1 str1" d="M432 2253c0,-24 -24,-43 -52,-43 -29,0 -52,19 -52,43 0,46 46,84 104,84 57,0 103,-38 103,-84 0,-70 -69,-127 -155,-127 -86,0 -156,57 -156,127 0,93 93,168 208,168 114,0 207,-75 207,-168 0,-117 -116,-211 -259,-211 -144,0 -260,94 -260,211 0,139 140,252 312,252 172,0 311,-113 311,-252 0,-163 -163,-295 -363,-295 -201,0 -364,132 -364,295 0,186 186,336 416,336 229,0 415,-150 415,-336"/>
  <path class="fil1 str1" d="M9923 1331c0,-50 -50,-91 -111,-91 -62,0 -111,41 -111,91 0,99 99,180 222,180 123,0 222,-81 222,-180 0,-150 -149,-271 -333,-271 -185,0 -334,121 -334,271 0,199 199,360 445,360 246,0 445,-161 445,-360 0,-250 -249,-452 -556,-452 -307,0 -556,202 -556,452 0,299 298,541 667,541 369,0 667,-242 667,-541 0,-349 -348,-632 -778,-632 -430,0 -779,283 -779,632 0,398 399,721 890,721 491,0 890,-323 890,-721"/>
 </g>
</svg>
