<?xml version="1.0" encoding="UTF-8"?>
<!DOCTYPE svg PUBLIC "-//W3C//DTD SVG 1.1//EN" "http://www.w3.org/Graphics/SVG/1.1/DTD/svg11.dtd">
<!-- Creator: CorelDRAW X7 -->
<svg xmlns="http://www.w3.org/2000/svg" xml:space="preserve" width="67.7334mm" height="16.9334mm" version="1.1" style="shape-rendering:geometricPrecision; text-rendering:geometricPrecision; image-rendering:optimizeQuality; fill-rule:evenodd; clip-rule:evenodd"
viewBox="0 0 11084 2771"
 xmlns:xlink="http://www.w3.org/1999/xlink">
 <defs>
  <style type="text/css">
   <![CDATA[
    .str1 {stroke:#FEFEFE;stroke-width:32.7297}
    .str0 {stroke:#FEFEFE;stroke-width:81.8242;stroke-dasharray:81.824178 409.120890}
    .fil1 {fill:none}
    .fil6 {fill:#FEFEFE}
    .fil7 {fill:#FFF212}
    .fil3 {fill:#FFCC29}
    .fil0 {fill:#F58634}
    .fil2 {fill:#91D8F7}
    .fil4 {fill:#A8CF45}
    .fil5 {fill:#00A859}
   ]]>
  </style>
 </defs>
 <g id="Capa_x0020_1">
  <metadata id="CorelCorpID_0Corel-Layer"/>
  <rect class="fil0" width="11084" height="2771"/>
  <rect class="fil1 str0" x="265" y="526" width="10554" height="2141"/>
  <rect class="fil2" y="2154" width="11084" height="617"/>
  <rect class="fil3" y="1739" width="1062" height="1033"/>
  <rect class="fil4" y="1288" width="463" height="450"/>
  <path class="fil5" d="M4084 1268l3 -100c6,2 12,3 17,3 13,1 21,-3 24,-12 4,-8 7,-29 8,-62l7 -256 -37 -1 3 -97 229 7 -3 97 -35 -1 -7 238c-2,44 -4,75 -7,93 -2,18 -10,35 -21,51 -12,17 -27,29 -46,36 -18,8 -43,11 -75,10 -19,0 -39,-2 -60,-6zm305 -413l-31 2 -7 -96 207 -15 7 97 -19 2 9 136c3,32 7,54 14,66 7,11 19,16 35,15 13,-1 23,-7 28,-17 5,-10 7,-30 5,-60l-10 -146 -21 1 -6 -96 152 -11 7 97 -32 2 10 147c2,37 -1,68 -10,93 -10,24 -26,44 -51,59 -24,15 -54,24 -91,26 -30,2 -56,1 -80,-5 -24,-5 -43,-15 -57,-28 -15,-13 -26,-30 -34,-49 -8,-20 -13,-49 -16,-90l-9 -130zm731 152l-41 3 -5 -77 181 -11c3,44 2,77 -3,99 -5,21 -16,43 -34,65 -18,22 -39,39 -66,51 -26,11 -54,18 -85,20 -46,2 -87,-3 -125,-15 -39,-13 -69,-35 -92,-68 -22,-32 -35,-69 -38,-111 -4,-63 14,-115 53,-157 39,-41 88,-63 148,-67 50,-3 89,7 119,29l-2 -28 98 -6 9 141 -98 6c-9,-17 -21,-29 -36,-37 -14,-8 -30,-12 -48,-10 -26,1 -44,11 -55,28 -11,17 -15,48 -12,93 3,44 11,74 24,89 14,16 33,23 57,21 36,-2 53,-21 51,-58zm208 -152l-31 2 -7 -96 207 -15 7 97 -19 2 9 136c2,32 7,54 14,66 7,11 19,16 35,15 13,-1 22,-7 28,-17 5,-10 7,-30 5,-60l-10 -146 -21 1 -6 -96 152 -11 6 97 -32 2 11 147c2,37 -1,68 -11,93 -9,24 -25,44 -50,59 -24,15 -54,24 -91,26 -30,2 -56,1 -80,-5 -24,-5 -43,-15 -57,-28 -15,-13 -26,-30 -34,-49 -8,-20 -13,-49 -16,-90l-9 -130zm796 308l-386 -23 5 -96 31 1 12 -210 -31 -2 5 -97 387 22 -8 129 -106 -6 2 -32 -92 -6 -4 63 80 4 -4 82 -80 -4 -4 66 92 5 2 -32 106 6 -7 130zm361 0l-226 -25 10 -96 35 4 23 -210 -47 -5 -8 73 -75 -8 18 -170 400 43 -19 170 -76 -8 9 -74 -46 -4 -23 210 35 3 -10 97zm534 0l-386 -23 6 -96 31 1 12 -210 -32 -2 5 -97 387 22 -7 129 -106 -6 1 -32 -92 -6 -3 63 80 4 -5 82 -80 -4 -4 66 92 5 2 -32 106 6 -7 130zm196 -3l-90 14 -20 -129 90 -14c16,34 39,48 69,43 21,-3 31,-13 28,-31 -1,-9 -6,-15 -15,-20 -9,-6 -27,-12 -55,-19 -35,-10 -61,-19 -78,-27 -16,-8 -30,-20 -43,-35 -13,-16 -21,-34 -24,-55 -6,-37 2,-68 23,-93 20,-24 48,-39 83,-45 35,-5 67,0 94,16l-3 -24 90 -15 18 114 -90 14c-15,-29 -37,-42 -65,-38 -20,3 -28,13 -26,30 2,8 5,13 12,17 6,3 24,10 56,20 42,13 71,23 86,30 7,3 15,9 23,15 8,7 15,15 21,22 14,18 22,37 26,59 5,34 -3,64 -24,91 -22,28 -51,44 -89,50 -36,6 -69,0 -101,-16l4 26z"/>
  <path class="fil6" d="M4591 1347l7 123 8 0c22,-1 36,-8 42,-19 5,-12 8,-27 7,-44 -1,-11 -3,-21 -6,-31 -3,-10 -9,-18 -16,-23 -8,-5 -20,-7 -39,-7l-3 1zm10 180l-111 6 -3 -57 19 -1 -7 -123 -18 1 -3 -57 113 -6c26,-2 47,-1 64,1 17,2 32,8 48,17 15,9 27,22 36,39 4,8 8,17 11,26 2,9 4,19 4,29 2,21 -2,40 -10,57 -7,17 -18,31 -30,40 -13,10 -27,17 -42,21 -15,3 -39,6 -71,7zm325 -4l-136 6 -2 -57 22 -1 -7 -123 -22 1 -2 -57 135 -7 3 57 -22 1 6 124 22 -1 3 57zm130 -176l7 123 9 0c21,-1 35,-8 41,-19 6,-12 8,-27 7,-44 0,-11 -2,-21 -6,-31 -3,-10 -8,-18 -16,-23 -7,-5 -20,-7 -38,-7l-4 1zm10 180l-110 6 -4 -57 19 -1 -6 -123 -19 1 -3 -57 114 -6c25,-2 47,-1 63,1 17,2 33,8 48,17 15,9 27,22 36,39 5,8 8,17 11,26 3,9 4,19 5,29 1,21 -2,40 -10,57 -8,17 -18,31 -31,40 -13,10 -27,17 -42,21 -15,3 -39,6 -71,7zm292 -178l-22 66 42 0 -20 -66zm-19 179l-94 7 -4 -57 18 -1 36 -127 -19 1 -4 -56 170 -12 4 57 -19 1 54 120 18 -1 4 57 -124 8 -4 -51 21 -2 -11 -29 -61 4 -8 31 19 -2 4 52zm36 -255l-41 0 33 -62 79 0 -71 62zm343 150l61 23c-6,25 -18,46 -37,62 -20,16 -46,23 -79,22 -46,-1 -79,-14 -101,-38 -21,-24 -31,-54 -31,-88 1,-34 13,-63 35,-87 22,-23 50,-35 85,-34 28,1 50,9 67,23l1 -16 57 1 -2 87 -59 -1c-3,-11 -8,-20 -16,-26 -7,-7 -15,-10 -24,-10 -26,-1 -39,21 -40,65 -2,45 11,67 38,68 23,1 38,-16 45,-51zm262 110l-133 -15 7 -56 20 2 13 -123 -27 -3 -5 43 -44 -5 11 -100 234 26 -11 99 -44 -4 5 -43 -27 -3 -14 123 21 2 -6 57zm231 -10l-135 6 -3 -57 22 -1 -6 -123 -22 1 -3 -57 136 -7 2 57 -22 1 7 124 22 -1 2 57zm211 -100l61 23c-6,25 -18,46 -38,62 -19,16 -45,23 -79,22 -45,-1 -79,-14 -100,-38 -22,-24 -32,-54 -31,-88 1,-34 12,-63 35,-87 22,-23 50,-35 84,-34 28,1 51,9 68,23l0 -16 57 1 -2 87 -59 -1c-3,-11 -8,-20 -15,-26 -7,-7 -15,-10 -25,-10 -25,-1 -39,21 -40,65 -1,45 12,67 38,68 24,1 39,-16 46,-51zm197 -16c0,26 3,44 8,53 5,9 13,14 23,14 10,0 18,-4 23,-13 6,-9 8,-27 8,-54 0,-26 -2,-44 -7,-54 -5,-9 -13,-14 -24,-14 -10,0 -18,5 -23,14 -5,9 -8,27 -8,54zm-103 0c0,-20 5,-39 15,-58 9,-18 24,-34 44,-47 7,-4 15,-8 22,-10 8,-3 16,-5 25,-6 9,-2 18,-2 28,-2 43,0 76,12 99,37 12,12 21,26 26,40 6,14 9,30 9,46 0,33 -12,62 -36,86 -24,25 -57,37 -98,37 -40,0 -72,-12 -97,-35 -24,-23 -37,-52 -37,-88zm374 124l-53 8 -12 -75 53 -8c10,19 23,27 40,25 13,-2 19,-8 17,-18 -1,-6 -4,-10 -9,-13 -5,-3 -16,-6 -32,-11 -20,-5 -36,-11 -46,-16 -9,-4 -18,-11 -25,-20 -8,-9 -12,-20 -14,-32 -4,-22 1,-40 13,-54 12,-15 29,-24 49,-27 21,-3 39,0 55,9l-2 -14 53 -8 11 66 -53 9c-9,-18 -22,-25 -38,-23 -12,2 -17,8 -15,18 1,4 3,8 6,10 4,2 15,5 34,11 24,8 41,14 50,18 4,2 9,5 13,9 5,4 9,8 13,13 8,10 13,22 15,34 3,20 -2,38 -14,54 -13,16 -30,26 -53,29 -20,3 -40,0 -59,-9l3 15z"/>
  <path class="fil2" d="M4167 1704l-2 45 18 1c12,1 22,0 27,-3 6,-3 9,-8 9,-17 1,-5 0,-10 -3,-14 -3,-4 -7,-7 -11,-8 -5,-1 -13,-2 -23,-3l-15 -1zm14 187l-139 -7 4 -57 23 1 6 -124 -23 -1 3 -57 146 8c33,2 57,6 73,14 15,7 26,17 32,28 7,12 10,25 9,38 -1,17 -6,31 -15,41 -9,11 -21,19 -35,23 -15,4 -36,5 -66,4l-37 -2 -2 33 24 1 -3 57zm261 -177l-22 65 42 0 -20 -65zm-19 179l-94 7 -4 -57 18 -1 36 -127 -19 1 -4 -57 170 -11 4 56 -19 2 54 120 18 -1 4 57 -124 8 -4 -52 21 -1 -11 -29 -61 4 -8 30 19 -1 4 52zm306 -189l-2 45 10 0c13,1 22,2 27,1 5,0 10,-2 13,-6 4,-3 6,-8 7,-14 0,-6 -1,-11 -4,-15 -4,-4 -8,-6 -14,-8 -5,-1 -14,-2 -28,-3l-9 0zm6 186l-129 -9 4 -56 19 1 8 -124 -19 -1 4 -57 129 9c12,1 22,2 32,3 10,1 18,2 25,3 7,1 14,3 20,4 16,5 29,13 39,26 9,13 14,27 12,44 0,12 -4,23 -11,33 -8,9 -16,16 -27,20l29 56 17 1 -4 57 -85 -6 -45 -100 -29 -2 -3 40 18 1 -4 57zm283 -176l-23 65 43 0 -20 -65zm-19 179l-94 7 -4 -57 18 -1 36 -127 -19 1 -4 -57 170 -11 4 56 -19 2 54 120 18 -1 3 57 -123 8 -4 -52 21 -1 -11 -29 -61 4 -8 30 19 -1 4 52zm447 4l-133 -14 7 -56 20 2 13 -124 -27 -2 -5 42 -44 -4 11 -100 234 26 -10 99 -45 -5 5 -43 -27 -3 -14 124 21 2 -6 56zm198 -126c0,27 3,45 8,54 5,9 13,14 23,14 10,0 18,-5 23,-14 5,-9 8,-27 8,-54 0,-26 -2,-43 -7,-53 -5,-9 -13,-14 -24,-14 -10,0 -18,5 -23,14 -5,9 -8,27 -8,53zm-103 0c0,-19 5,-39 15,-57 9,-19 24,-34 44,-47 7,-4 15,-8 22,-10 8,-3 16,-5 25,-6 9,-2 18,-3 28,-3 43,0 76,13 99,38 12,12 20,25 26,40 6,14 9,29 9,45 0,34 -12,62 -36,87 -24,24 -57,37 -98,37 -40,0 -72,-12 -97,-35 -24,-23 -37,-52 -37,-89zm409 -60l7 124 9 0c21,-1 35,-8 41,-20 6,-11 8,-26 7,-44 0,-10 -2,-20 -6,-30 -3,-11 -8,-18 -16,-23 -7,-6 -20,-8 -38,-7l-4 0zm10 181l-110 6 -3 -57 18 -1 -6 -124 -19 1 -3 -56 114 -6c26,-2 47,-1 63,1 17,2 33,8 48,17 15,9 27,22 36,39 5,8 8,16 11,26 3,9 4,19 5,29 1,20 -2,39 -10,57 -8,17 -18,31 -31,40 -12,10 -26,17 -42,20 -15,4 -39,6 -71,8zm292 -178l-22 65 42 0 -20 -65zm-19 179l-94 7 -4 -57 18 -1 36 -127 -19 1 -4 -57 170 -11 4 56 -19 2 54 120 18 -1 4 57 -124 8 -4 -52 21 -1 -11 -29 -61 4 -8 30 19 -1 4 52zm264 3l-53 8 -12 -75 53 -9c9,20 23,28 40,25 13,-1 18,-7 17,-18 -1,-5 -4,-9 -9,-12 -5,-3 -16,-7 -32,-11 -21,-6 -36,-11 -46,-16 -9,-4 -18,-11 -25,-20 -8,-9 -12,-20 -14,-32 -4,-22 1,-40 13,-55 12,-14 29,-23 49,-26 21,-3 39,0 55,9l-2 -14 53 -9 11 67 -53 8c-9,-17 -22,-24 -38,-22 -12,2 -17,8 -15,17 0,5 3,8 6,10 4,2 15,6 33,12 25,8 42,14 51,18 4,2 8,5 13,9 5,4 9,8 13,13 8,10 13,21 15,34 3,20 -2,38 -14,54 -13,16 -30,26 -53,29 -20,3 -40,0 -59,-10l3 16zm448 2l-226 -15 4 -56 21 1 8 -124 -21 -1 3 -57 136 9 -4 57 -22 -2 -8 124 56 4 2 -38 57 3 -6 95zm134 -184l-22 65 42 0 -20 -65zm-19 179l-94 7 -4 -57 18 -1 36 -127 -19 1 -4 -57 170 -11 4 56 -19 2 54 120 18 -1 4 57 -124 8 -4 -52 21 -1 -11 -29 -61 4 -8 30 19 -1 4 52zm264 3l-53 8 -12 -75 53 -9c9,20 23,28 40,25 13,-1 18,-7 17,-18 -1,-5 -4,-9 -9,-12 -5,-3 -16,-7 -32,-11 -21,-6 -36,-11 -46,-16 -9,-4 -18,-11 -25,-20 -8,-9 -12,-20 -14,-32 -4,-22 1,-40 13,-55 12,-14 29,-23 49,-26 21,-3 39,0 55,9l-2 -14 53 -9 11 67 -53 8c-9,-17 -22,-24 -38,-22 -12,2 -17,8 -15,17 0,5 3,8 6,10 4,2 15,6 33,12 25,8 42,14 51,18 4,2 8,5 13,9 5,4 9,8 13,13 8,10 13,21 15,34 3,20 -2,38 -14,54 -13,16 -30,26 -53,29 -20,3 -40,0 -59,-10l3 16z"/>
  <path class="fil7" d="M5164 2262l-226 -13 3 -57 18 1 7 -123 -18 -1 3 -57 227 13 -5 76 -62 -4 1 -19 -54 -3 -2 36 47 3 -3 48 -47 -2 -2 39 54 3 1 -19 62 3 -4 76zm151 -186l6 124 9 0c22,-2 35,-8 41,-20 6,-12 8,-26 8,-44 -1,-10 -3,-21 -6,-31 -4,-10 -9,-17 -16,-23 -8,-5 -21,-7 -39,-6l-3 0zm9 181l-110 6 -3 -57 18 -1 -6 -124 -19 1 -3 -57 114 -6c26,-1 47,-1 64,2 16,2 32,8 47,17 15,9 27,22 37,39 4,8 8,16 11,25 2,10 4,19 4,30 1,20 -2,39 -10,57 -8,17 -18,30 -31,40 -12,10 -26,16 -42,20 -15,4 -38,6 -71,8zm292 -179l-22 66 43 0 -21 -66zm-19 180l-94 6 -4 -56 18 -1 36 -127 -19 1 -4 -57 171 -12 4 57 -19 1 54 121 17 -1 4 56 -124 9 -4 -52 21 -1 -11 -29 -60 4 -9 30 20 -1 3 52zm300 -182l6 124 9 0c22,-2 35,-8 41,-20 6,-12 8,-26 7,-44 0,-10 -2,-21 -5,-31 -4,-10 -9,-17 -17,-23 -7,-5 -20,-7 -38,-6l-3 0zm9 181l-110 6 -3 -57 18 -1 -6 -124 -19 1 -3 -57 114 -6c26,-1 47,-1 64,2 16,2 32,8 47,17 15,9 27,22 37,39 4,8 8,16 10,25 3,10 5,19 5,30 1,20 -2,39 -10,57 -8,17 -18,30 -31,40 -12,10 -26,16 -42,20 -15,4 -38,6 -71,8zm408 5l-227 -13 3 -57 19 1 7 -123 -19 -1 3 -57 227 13 -4 76 -62 -4 1 -19 -54 -3 -2 36 46 3 -2 48 -47 -2 -2 39 54 3 1 -19 62 3 -4 76zm115 -1l-53 8 -12 -76 53 -8c9,20 23,28 40,25 13,-2 18,-8 17,-18 -1,-5 -4,-9 -9,-12 -5,-3 -16,-7 -32,-11 -21,-6 -36,-11 -46,-16 -9,-4 -18,-11 -25,-20 -8,-10 -13,-20 -14,-32 -4,-22 1,-40 13,-55 12,-14 28,-23 49,-26 21,-4 39,0 55,9l-2 -14 53 -9 10 67 -52 8c-9,-17 -22,-25 -38,-22 -12,2 -17,7 -15,17 0,5 3,8 6,10 4,2 15,6 33,12 25,8 42,14 50,18 5,2 9,5 14,9 5,4 9,8 13,13 8,10 13,21 15,34 3,20 -2,37 -15,53 -12,17 -29,26 -52,30 -20,3 -40,0 -59,-10l3 16z"/>
  <path class="fil1 str1" d="M585 2154c0,-23 -23,-42 -51,-42 -29,0 -52,19 -52,42 0,47 46,85 103,85 58,0 104,-38 104,-85 0,-70 -69,-126 -155,-126 -87,0 -156,56 -156,126 0,93 93,169 207,169 115,0 208,-76 208,-169 0,-116 -116,-210 -259,-210 -144,0 -260,94 -260,210 0,140 139,253 311,253 173,0 312,-113 312,-253 0,-163 -163,-295 -363,-295 -201,0 -364,132 -364,295 0,186 186,337 415,337 230,0 416,-151 416,-337"/>
  <path class="fil1 str1" d="M10042 1213c0,-50 -50,-90 -111,-90 -62,0 -112,40 -112,90 0,100 100,181 223,181 123,0 223,-81 223,-181 0,-150 -150,-271 -334,-271 -185,0 -335,121 -335,271 0,199 200,361 446,361 246,0 445,-162 445,-361 0,-250 -249,-452 -556,-452 -308,0 -557,202 -557,452 0,299 299,542 668,542 369,0 668,-243 668,-542 0,-349 -349,-632 -779,-632 -431,0 -780,283 -780,632 0,399 399,722 891,722 492,0 891,-323 891,-722"/>
 </g>
</svg>
