<?xml version="1.0" encoding="UTF-8"?>
<!DOCTYPE svg PUBLIC "-//W3C//DTD SVG 1.1//EN" "http://www.w3.org/Graphics/SVG/1.1/DTD/svg11.dtd">
<!-- Creator: CorelDRAW X7 -->
<svg xmlns="http://www.w3.org/2000/svg" xml:space="preserve" width="67.7334mm" height="16.9334mm" version="1.1" style="shape-rendering:geometricPrecision; text-rendering:geometricPrecision; image-rendering:optimizeQuality; fill-rule:evenodd; clip-rule:evenodd"
viewBox="0 0 11084 2771"
 xmlns:xlink="http://www.w3.org/1999/xlink">
 <defs>
  <style type="text/css">
   <![CDATA[
    .str1 {stroke:#FEFEFE;stroke-width:32.7297}
    .str0 {stroke:#FEFEFE;stroke-width:81.8242;stroke-dasharray:81.824178 409.120890}
    .fil1 {fill:none}
    .fil6 {fill:#FEFEFE}
    .fil3 {fill:#FFCC29}
    .fil0 {fill:#F58634}
    .fil7 {fill:#ED3237}
    .fil2 {fill:#91D8F7}
    .fil4 {fill:#A8CF45}
    .fil5 {fill:#00A859}
   ]]>
  </style>
 </defs>
 <g id="Capa_x0020_1">
  <metadata id="CorelCorpID_0Corel-Layer"/>
  <rect class="fil0" width="11084" height="2771"/>
  <rect class="fil1 str0" x="265" y="526" width="10554" height="2141"/>
  <rect class="fil2" y="2154" width="11084" height="617"/>
  <rect class="fil3" y="1739" width="1062" height="1033"/>
  <rect class="fil4" y="1288" width="463" height="450"/>
  <path class="fil5" d="M3743 1327l3 -120c8,3 15,4 21,4 15,0 25,-4 29,-14 4,-11 7,-36 8,-76l10 -307 -45 -1 3 -117 275 9 -3 116 -42 -1 -8 286c-2,53 -5,90 -8,111 -4,22 -12,43 -26,62 -15,20 -33,34 -55,44 -22,9 -52,13 -91,12 -22,-1 -46,-3 -71,-8zm366 -496l-37 3 -8 -117 249 -17 8 116 -23 2 11 164c3,39 8,66 17,79 8,14 22,20 41,19 16,-2 28,-8 34,-21 6,-12 8,-36 6,-72l-12 -175 -25 1 -8 -116 183 -13 8 117 -38 2 12 176c3,45 -1,83 -12,112 -11,30 -31,53 -60,71 -30,18 -66,29 -110,32 -36,3 -68,1 -96,-6 -29,-7 -52,-18 -69,-34 -18,-16 -31,-36 -40,-59 -10,-23 -17,-59 -20,-108l-11 -156zm879 182l-50 4 -6 -93 218 -13c3,53 2,93 -4,119 -6,25 -19,52 -41,79 -21,26 -47,46 -78,60 -32,14 -66,22 -103,24 -55,4 -105,-2 -151,-18 -46,-15 -83,-42 -109,-81 -28,-39 -43,-84 -46,-134 -5,-75 16,-138 63,-188 47,-49 106,-76 178,-80 60,-4 108,7 143,35l-2 -35 118 -7 10 170 -117 7c-12,-20 -26,-35 -43,-45 -17,-9 -37,-13 -59,-12 -30,2 -52,13 -66,34 -13,21 -17,58 -14,112 3,53 13,89 29,107 16,19 39,27 68,25 44,-2 64,-26 62,-70zm250 -182l-37 3 -8 -117 248 -17 8 116 -23 2 12 164c2,39 8,66 16,79 9,14 23,20 42,19 16,-2 27,-8 33,-21 7,-12 9,-36 6,-72l-11 -175 -25 1 -8 -116 183 -13 8 117 -39 2 13 176c3,45 -1,83 -13,112 -11,30 -31,53 -60,71 -29,18 -66,29 -110,32 -36,3 -68,1 -95,-6 -29,-7 -52,-18 -69,-34 -18,-16 -31,-36 -41,-59 -9,-23 -16,-59 -19,-108l-11 -156zm956 369l-464 -26 7 -116 37 2 15 -254 -38 -2 6 -117 465 27 -9 155 -128 -7 3 -39 -111 -6 -4 74 96 6 -6 99 -96 -5 -4 79 110 6 2 -38 128 7 -9 155zm434 1l-272 -30 13 -115 42 4 27 -253 -56 -6 -9 88 -91 -9 22 -205 480 53 -22 204 -91 -10 10 -88 -55 -6 -28 252 43 5 -13 116zm643 -1l-465 -26 7 -116 38 2 14 -254 -38 -2 6 -117 465 27 -9 155 -127 -7 2 -39 -111 -6 -4 74 96 6 -5 99 -97 -5 -4 79 110 6 2 -38 128 7 -8 155zm235 -3l-108 17 -24 -154 108 -17c19,40 47,57 83,51 26,-4 37,-16 33,-37 -1,-11 -7,-19 -17,-25 -11,-6 -33,-14 -66,-23 -42,-11 -74,-22 -94,-32 -19,-9 -37,-23 -52,-42 -15,-19 -25,-41 -29,-66 -7,-44 2,-81 27,-111 25,-30 59,-48 101,-54 42,-7 80,-1 113,19l-5 -30 109 -17 22 137 -108 17c-19,-36 -45,-51 -79,-46 -23,4 -33,16 -31,36 2,9 7,16 14,20 7,4 30,12 68,24 51,16 85,28 103,37 9,4 18,10 28,18 10,8 19,17 26,27 16,20 26,44 30,70 7,40 -3,77 -29,109 -26,33 -61,53 -107,60 -42,7 -83,1 -121,-19l5 31z"/>
  <path class="fil6" d="M4352 1422l8 149 10 -1c26,-1 43,-9 50,-23 7,-15 10,-32 9,-53 -1,-13 -3,-25 -7,-37 -4,-12 -11,-22 -20,-28 -9,-6 -24,-9 -46,-7l-4 0zm11 217l-132 7 -4 -68 22 -2 -7 -148 -23 1 -4 -68 137 -8c31,-1 57,-1 77,2 20,3 39,10 57,21 18,11 33,26 44,46 5,10 9,20 13,31 3,11 5,23 5,35 2,25 -2,48 -12,69 -9,21 -21,37 -37,48 -15,12 -32,20 -50,24 -18,5 -47,8 -86,10zm391 -6l-162 8 -4 -68 27 -1 -8 -149 -26 1 -4 -68 163 -8 3 68 -26 1 8 149 26 -1 3 68zm157 -211l8 149 11 -1c26,-1 42,-9 49,-23 7,-15 10,-32 9,-53 -1,-13 -3,-25 -7,-37 -4,-12 -11,-22 -20,-28 -8,-6 -24,-9 -46,-7l-4 0zm12 217l-133 7 -4 -68 23 -2 -8 -148 -23 1 -3 -68 136 -8c32,-1 57,-1 77,2 20,3 39,10 57,21 18,11 33,26 44,46 5,10 10,20 13,31 3,11 5,23 6,35 1,25 -3,48 -12,69 -10,21 -22,37 -37,48 -15,12 -32,20 -51,24 -18,5 -46,8 -85,10zm351 -215l-27 79 51 0 -24 -79zm-23 216l-113 8 -5 -68 22 -2 43 -152 -23 1 -5 -68 205 -14 5 68 -23 2 65 144 21 -1 5 68 -149 11 -5 -63 25 -2 -13 -35 -73 5 -10 37 23 -1 5 62zm43 -307l-48 0 38 -74 96 0 -86 74zm413 180l73 28c-7,31 -22,55 -45,74 -23,19 -55,28 -95,27 -55,-1 -95,-17 -121,-46 -25,-29 -38,-64 -37,-105 1,-41 15,-76 42,-104 26,-29 60,-42 102,-41 33,1 60,9 81,27l1 -19 68 1 -3 105 -71 -2c-3,-13 -9,-24 -18,-32 -8,-7 -18,-11 -29,-11 -31,-1 -47,25 -49,78 -1,54 14,81 46,82 28,0 47,-20 55,-62zm315 132l-160 -17 7 -68 25 3 16 -148 -33 -4 -5 52 -54 -6 13 -120 282 31 -13 119 -53 -5 6 -52 -33 -4 -16 149 25 2 -7 68zm278 -12l-163 8 -3 -68 26 -1 -8 -149 -26 1 -3 -68 162 -8 4 68 -26 1 7 149 26 -1 4 68zm253 -120l73 28c-7,31 -22,55 -45,74 -23,19 -55,28 -95,27 -55,-1 -95,-17 -121,-46 -26,-29 -38,-64 -37,-105 1,-41 15,-76 42,-104 26,-29 60,-42 102,-41 33,1 60,9 81,27l0 -19 69 1 -3 105 -71 -2c-3,-13 -9,-24 -18,-32 -8,-7 -18,-11 -30,-11 -30,-1 -47,25 -48,78 -1,54 14,81 46,82 28,0 46,-20 55,-62zm237 -19c0,32 3,53 9,64 6,11 15,17 28,17 12,0 22,-5 28,-16 6,-11 9,-33 9,-65 0,-32 -3,-53 -9,-64 -6,-11 -15,-17 -28,-17 -12,0 -22,5 -28,16 -6,11 -9,33 -9,65zm-124 0c0,-24 6,-47 17,-69 12,-23 30,-41 54,-56 9,-6 18,-10 27,-13 9,-3 19,-6 29,-8 11,-1 22,-2 34,-2 51,0 91,15 119,45 14,15 25,31 32,48 7,17 10,36 10,55 0,40 -14,74 -43,104 -29,29 -69,44 -118,44 -48,0 -87,-14 -116,-41 -30,-28 -45,-64 -45,-107zm449 149l-63 10 -15 -91 64 -9c11,23 28,33 49,30 15,-3 21,-10 19,-22 -1,-6 -4,-11 -10,-15 -6,-3 -19,-8 -39,-13 -24,-7 -43,-13 -55,-19 -11,-5 -21,-14 -30,-25 -9,-11 -15,-23 -17,-38 -4,-26 1,-48 16,-65 14,-18 34,-28 59,-32 25,-4 47,0 66,11l-3 -17 64 -11 13 81 -63 10c-11,-21 -27,-30 -47,-27 -13,2 -19,9 -18,21 1,5 4,9 8,12 5,2 18,7 40,14 30,9 50,16 60,21 6,3 11,6 17,11 6,5 11,10 15,16 10,12 16,25 18,41 4,23 -2,45 -17,64 -15,19 -36,31 -63,35 -25,4 -48,0 -71,-11l3 18z"/>
  <path class="fil2" d="M3843 1852l-3 53 21 1c15,1 26,0 33,-3 7,-3 11,-10 11,-20 1,-7 -1,-13 -4,-18 -3,-4 -8,-7 -13,-9 -6,-1 -15,-3 -28,-3l-17 -1zm16 224l-166 -9 3 -68 28 2 8 -149 -28 -2 4 -68 175 9c40,2 69,8 87,17 19,9 32,20 40,34 8,14 11,29 10,46 -1,20 -7,36 -18,49 -11,13 -25,22 -43,27 -17,5 -43,6 -78,5l-45 -3 -2 40 29 2 -4 68zm314 -213l-27 79 51 0 -24 -79zm-23 216l-113 7 -5 -68 22 -1 43 -153 -23 2 -5 -68 205 -15 5 69 -23 1 65 145 21 -2 5 69 -149 10 -5 -62 25 -2 -13 -35 -73 5 -10 37 23 -2 5 63zm368 -228l-3 54 12 1c16,1 27,1 33,1 6,-1 12,-3 16,-8 5,-3 7,-9 8,-16 0,-8 -2,-14 -5,-18 -4,-5 -10,-8 -16,-10 -6,-1 -18,-3 -35,-4l-10 0zm7 224l-155 -11 5 -68 23 2 10 -149 -23 -1 4 -69 155 11c14,1 27,2 39,3 12,1 22,3 30,4 9,1 16,3 23,5 20,6 36,16 47,31 12,15 17,33 16,53 -1,14 -6,28 -15,39 -8,12 -19,20 -32,24l35 68 21 1 -5 69 -102 -7 -55 -121 -35 -2 -3 48 22 2 -5 68zm340 -212l-27 79 51 0 -24 -79zm-23 216l-113 7 -5 -68 22 -1 43 -153 -23 2 -5 -68 205 -15 5 69 -23 1 65 145 21 -2 5 69 -149 10 -5 -62 26 -2 -14 -35 -73 5 -10 37 24 -2 4 63zm538 5l-160 -17 8 -68 24 2 16 -148 -32 -3 -6 51 -53 -6 13 -119 281 30 -13 120 -53 -6 6 -52 -33 -3 -16 148 25 3 -7 68zm238 -152c0,32 3,54 9,65 6,11 15,16 28,16 12,0 22,-5 28,-16 6,-11 9,-32 9,-65 0,-31 -3,-52 -9,-64 -6,-11 -15,-17 -28,-17 -12,0 -22,6 -28,17 -6,10 -9,32 -9,64zm-124 0c0,-24 6,-47 17,-69 12,-22 30,-41 54,-56 9,-5 18,-10 27,-13 9,-3 19,-5 29,-7 11,-2 22,-3 34,-3 51,0 91,15 119,45 14,15 25,31 32,48 7,18 10,36 10,55 0,40 -14,75 -43,104 -29,30 -69,44 -118,44 -48,0 -87,-13 -116,-41 -30,-28 -45,-63 -45,-107zm492 -72l8 149 10 0c26,-2 43,-10 50,-24 7,-14 10,-32 9,-53 -1,-12 -3,-25 -7,-37 -4,-12 -11,-21 -20,-27 -9,-7 -24,-9 -46,-8l-4 0zm12 217l-133 7 -4 -68 22 -1 -7 -149 -23 1 -3 -68 136 -7c31,-2 57,-1 77,1 20,3 39,10 57,21 18,11 33,27 44,47 5,9 10,20 13,31 3,11 5,22 5,35 2,25 -2,47 -12,68 -9,21 -21,37 -37,49 -15,12 -31,20 -50,24 -18,4 -47,7 -85,9zm350 -214l-26 79 51 0 -25 -79zm-23 216l-112 7 -5 -68 22 -1 43 -153 -23 2 -5 -68 205 -15 5 69 -23 1 65 145 21 -2 4 69 -148 10 -5 -62 25 -2 -13 -35 -73 5 -10 37 23 -2 4 63zm318 3l-64 10 -14 -91 63 -10c12,24 28,34 49,30 15,-2 22,-9 20,-21 -1,-7 -5,-12 -10,-15 -7,-4 -20,-8 -39,-14 -25,-6 -43,-13 -55,-19 -12,-5 -22,-13 -31,-24 -9,-11 -15,-24 -17,-39 -4,-26 1,-48 16,-65 15,-17 35,-28 59,-32 25,-4 47,0 67,12l-3 -18 64 -10 12 80 -63 10c-11,-21 -26,-30 -46,-27 -14,2 -20,9 -18,21 1,6 4,10 8,12 4,2 17,7 40,14 30,10 50,17 60,22 5,2 11,6 17,10 5,5 10,10 15,16 9,12 15,26 17,41 4,24 -1,45 -17,64 -15,20 -36,32 -62,36 -25,4 -49,0 -71,-12l3 19zm538 2l-271 -17 4 -68 26 1 10 -148 -26 -2 4 -68 164 10 -5 68 -27 -1 -10 148 68 5 3 -46 68 4 -8 114zm162 -221l-27 79 51 0 -24 -79zm-23 216l-113 7 -5 -68 22 -1 43 -153 -23 2 -5 -68 205 -15 5 69 -23 1 65 145 21 -2 4 69 -148 10 -5 -62 25 -2 -13 -35 -73 5 -10 37 23 -2 5 63zm317 3l-64 10 -14 -91 63 -10c12,24 28,34 49,30 15,-2 22,-9 20,-21 -1,-7 -5,-12 -10,-15 -7,-4 -20,-8 -39,-14 -25,-6 -43,-13 -55,-19 -12,-5 -22,-13 -31,-24 -9,-11 -14,-24 -17,-39 -4,-26 1,-48 16,-65 15,-17 35,-28 59,-32 25,-4 47,0 67,12l-3 -18 64 -10 12 80 -63 10c-11,-21 -26,-30 -46,-27 -14,2 -20,9 -18,21 1,6 4,10 8,12 4,2 17,7 40,14 30,10 50,17 60,22 5,2 11,6 17,10 5,5 10,10 15,16 9,12 15,26 18,41 3,24 -2,45 -17,64 -16,20 -36,32 -63,36 -25,4 -49,0 -71,-12l3 19z"/>
  <path class="fil7" d="M5041 2522l-272 -16 4 -68 22 2 8 -149 -22 -2 3 -68 273 16 -5 91 -75 -4 1 -23 -64 -4 -3 44 56 3 -3 58 -56 -3 -3 47 65 3 1 -22 75 4 -5 91zm181 -223l8 149 10 -1c26,-1 43,-9 50,-23 7,-15 10,-32 9,-53 -1,-13 -3,-25 -7,-37 -4,-12 -11,-22 -20,-28 -9,-6 -24,-9 -46,-7l-4 0zm11 217l-132 7 -4 -68 22 -2 -7 -148 -23 1 -3 -68 136 -8c31,-1 57,-1 77,2 20,3 39,10 57,21 18,11 33,26 44,46 5,10 9,20 13,31 3,11 5,23 5,35 2,25 -2,48 -12,69 -9,21 -21,37 -37,48 -15,12 -32,20 -50,24 -18,5 -47,8 -86,10zm351 -215l-26 79 51 0 -25 -79zm-23 216l-112 8 -5 -68 21 -2 44 -152 -23 1 -5 -68 205 -14 4 68 -22 2 65 144 21 -1 4 68 -148 11 -5 -63 25 -2 -13 -35 -73 5 -10 37 23 -1 4 62zm360 -218l8 149 11 -1c26,-1 42,-9 49,-23 7,-15 10,-32 9,-53 -1,-13 -3,-25 -7,-37 -4,-12 -10,-22 -19,-28 -9,-6 -25,-9 -46,-7l-5 0zm12 217l-133 7 -4 -68 23 -2 -8 -148 -22 1 -4 -68 137 -8c31,-1 56,-1 76,2 20,3 39,10 58,21 18,11 32,26 43,46 6,10 10,20 13,31 3,11 5,23 6,35 1,25 -3,48 -12,69 -10,21 -22,37 -37,48 -15,12 -32,20 -51,24 -18,5 -46,8 -85,10zm490 6l-273 -16 4 -68 22 2 9 -149 -23 -2 4 -68 273 16 -6 91 -74 -4 1 -23 -65 -4 -2 44 56 3 -3 58 -57 -3 -2 47 64 3 2 -22 75 4 -5 91zm138 -2l-64 10 -14 -90 64 -10c11,23 27,33 48,30 15,-3 22,-10 20,-22 -1,-6 -4,-11 -10,-15 -7,-3 -20,-8 -39,-13 -25,-7 -43,-13 -55,-19 -11,-5 -22,-14 -31,-25 -9,-11 -14,-23 -17,-38 -4,-26 2,-48 16,-65 15,-18 35,-28 59,-32 25,-4 47,0 67,11l-3 -17 64 -10 12 80 -63 10c-11,-21 -26,-30 -46,-27 -14,2 -20,9 -18,21 1,5 4,9 8,12 4,2 18,7 40,14 30,9 50,16 60,21 5,3 11,6 17,11 5,5 11,10 15,16 9,12 15,25 18,41 3,23 -2,45 -17,64 -16,19 -36,31 -63,35 -25,4 -49,0 -71,-11l3 18z"/>
  <path class="fil1 str1" d="M585 2154c0,-23 -23,-42 -51,-42 -29,0 -52,19 -52,42 0,47 46,85 103,85 58,0 104,-38 104,-85 0,-70 -69,-126 -155,-126 -87,0 -156,56 -156,126 0,93 93,169 207,169 115,0 208,-76 208,-169 0,-116 -116,-210 -259,-210 -144,0 -260,94 -260,210 0,140 139,253 311,253 173,0 312,-113 312,-253 0,-163 -163,-295 -363,-295 -201,0 -364,132 -364,295 0,186 186,337 415,337 230,0 416,-151 416,-337"/>
  <path class="fil1 str1" d="M10042 1213c0,-50 -50,-90 -111,-90 -62,0 -112,40 -112,90 0,100 100,181 223,181 123,0 223,-81 223,-181 0,-150 -150,-271 -334,-271 -185,0 -335,121 -335,271 0,199 200,361 446,361 246,0 445,-162 445,-361 0,-250 -249,-452 -556,-452 -308,0 -557,202 -557,452 0,299 299,542 668,542 369,0 668,-243 668,-542 0,-349 -349,-632 -779,-632 -431,0 -780,283 -780,632 0,399 399,722 891,722 492,0 891,-323 891,-722"/>
 </g>
</svg>
