<?xml version="1.0" encoding="UTF-8"?>
<!DOCTYPE svg PUBLIC "-//W3C//DTD SVG 1.1//EN" "http://www.w3.org/Graphics/SVG/1.1/DTD/svg11.dtd">
<!-- Creator: CorelDRAW X7 -->
<svg xmlns="http://www.w3.org/2000/svg" xml:space="preserve" width="12.5374mm" height="12.5681mm" version="1.1" style="shape-rendering:geometricPrecision; text-rendering:geometricPrecision; image-rendering:optimizeQuality; fill-rule:evenodd; clip-rule:evenodd"
viewBox="0 0 32 32"
 xmlns:xlink="http://www.w3.org/1999/xlink">
 <defs>
  <style type="text/css">
   <![CDATA[
    .fil0 {fill:#00AD64}
   ]]>
  </style>
 </defs>
 <g id="Capa_x0020_1">
  <metadata id="CorelCorpID_0Corel-Layer"/>
  <path class="fil0" d="M9 26l1 1c1,1 4,1 6,1 7,0 13,-5 13,-12 0,-7 -6,-13 -13,-13 -7,0 -13,6 -13,13 0,2 1,4 2,6l0 1 -1 5 5 -2zm-9 6l2 -9c-1,-2 -2,-5 -2,-7 0,-9 7,-16 16,-16 9,0 16,7 16,16 0,8 -7,15 -16,15 -3,0 -5,0 -7,-2l-9 3z"/>
  <path class="fil0" d="M22 18c-1,-1 -2,-1 -2,-1 -1,1 -1,2 -2,2 0,0 0,0 0,0 -3,-1 -4,-2 -6,-4 0,-1 0,-1 1,-1 0,0 0,-1 0,-2 1,0 0,-1 0,-1 0,-1 -1,-2 -1,-2 -1,-1 -2,0 -2,0 -1,1 -2,2 -2,3 0,0 0,1 1,1 0,1 0,2 0,2 1,1 1,1 1,2 2,1 3,3 5,4 1,0 2,1 3,1 1,0 2,1 3,1 1,-1 2,-1 2,-2 1,-1 1,-1 1,-2 -1,0 -2,-1 -2,-1z"/>
 </g>
</svg>
